<svg xmlns="http://www.w3.org/2000/svg" version="1.1" xmlns:xlink="http://www.w3.org/1999/xlink" xmlns:svgjs="http://svgjs.dev/svgjs" width="512" height="512"><svg width="512" height="512" viewBox="0 0 512 512" fill="none" xmlns="http://www.w3.org/2000/svg">
<g clip-path="url(#clip0_974_1878)">
<rect width="512" height="512" fill="white"></rect>
<path fill-rule="evenodd" clip-rule="evenodd" d="M94 255.5C94 354.302 155.631 416 247 416C299.235 416 344.647 395.306 370.783 355.352L370.783 409.097H438.017V305.549C438.017 269.628 453.893 250.87 482.101 246.276C475.82 261.342 472.479 278.647 472.479 297.782C472.479 368.54 518.163 414.274 589.276 414.274C631.395 414.274 664.638 398.034 684.627 369.937C698.346 402.141 731.29 415.568 784.485 415.568C829.907 415.568 862.576 403.601 878.836 381.428C895.112 405.369 926.092 415.568 972.454 415.568C1015.08 415.568 1046.48 405.028 1063.62 385.405V409.098H1136.45V299.941H1181.71L1248.51 409.098H1330.4L1318.81 390.704C1338.23 405.874 1363.67 414.274 1393.22 414.274C1439.5 414.274 1478.03 393.564 1495.36 357.468V409.098H1689.27V101.904H1495.36V244.6C1477.68 204.762 1440.93 181.29 1392.36 181.29C1363.11 181.29 1338.15 189.493 1319.06 204.252C1319.15 202.372 1319.19 200.471 1319.19 198.549C1319.19 139.009 1275.66 101.904 1205.84 101.904H1063.62V222.499C1050.56 197.599 1021.89 181.29 969.006 181.29C920.095 181.29 888.225 195.913 875.408 222.044C862.239 197.401 833.602 181.29 781.037 181.29C729.279 181.29 696.603 197.664 685.396 226.723C665.496 197.953 631.94 181.29 589.276 181.29C559.239 181.29 533.739 189.449 514.302 204.207V178.702L499.648 178.702C468.349 178.702 448.168 201.729 438.02 227.513C436.925 230.295 434.286 232.202 431.296 232.202H370.783L370.783 290.879H320.268C313.372 331.867 283.203 353.008 247 353.008C197.437 353.008 169.854 316.766 169.854 255.5C169.854 194.665 197.437 157.992 247 157.992C281.479 157.992 309.062 175.681 318.544 211.923H392.243C380.175 135.125 319.837 95 247 95C153.476 95 94 156.698 94 255.5ZM705.599 301.527C718.177 310.591 735.252 316.54 756.04 319.786L784.916 324.532C815.085 329.278 823.274 335.75 823.274 349.125C823.274 362.5 812.93 370.697 785.778 370.697C757.764 370.697 745.697 362.5 743.111 338.339H699.948C703.363 327.072 705.294 314.754 705.599 301.527ZM944.009 319.786C899.473 312.833 871.981 293.471 869.243 257.657H821.981C821.119 233.496 805.173 226.161 781.037 226.161C756.902 226.161 746.99 234.359 746.99 247.302C746.99 260.677 757.764 266.286 779.314 269.738L812.5 274.484C862.746 282.317 888.197 301.971 890.358 338.339H931.079C933.665 362.5 945.733 370.697 973.747 370.697C1000.9 370.697 1011.24 362.5 1011.24 349.125C1011.24 335.75 1003.05 329.278 972.885 324.532L944.009 319.786ZM1063.62 257.657H1009.95C1009.09 233.496 993.141 226.161 969.006 226.161C944.871 226.161 934.958 234.359 934.958 247.302C934.958 260.677 945.733 266.286 967.282 269.738L1000.47 274.484C1029.96 279.081 1050.91 287.75 1063.62 301.479V257.657ZM1254.55 288.723C1263.61 285.667 1271.83 281.68 1279.13 276.853C1278.19 283.557 1277.71 290.542 1277.71 297.782C1277.71 309.88 1279.08 321.246 1281.68 331.778L1254.55 288.723ZM1136.45 160.15V243.42H1201.1C1229.12 243.42 1246.36 226.162 1246.36 201.57C1246.36 176.977 1229.12 160.15 1201.1 160.15H1136.45ZM1495.36 339.633V317.629H1342.36C1347.1 349.556 1366.93 364.657 1393.22 364.657C1415.63 364.657 1430.28 355.597 1438.04 339.633H1495.36ZM1342.79 274.915C1347.97 243.851 1366.93 230.907 1391.5 230.907C1418.65 230.907 1436.32 247.302 1441.06 274.915H1342.79ZM637.547 297.782C637.547 340.064 619.014 360.343 589.276 360.343C559.107 360.343 540.574 340.064 540.574 297.782C540.574 255.5 559.107 235.222 589.276 235.222C619.014 235.222 637.547 255.5 637.547 297.782Z" fill="black"></path>
</g>
<defs>
<clipPath id="SvgjsClipPath1001">
<rect width="512" height="512" fill="white"></rect>
</clipPath>
</defs>
</svg><style>@media (prefers-color-scheme: light) { :root { filter: none; } }
@media (prefers-color-scheme: dark) { :root { filter: none; } }
</style></svg>