<svg xmlns="http://www.w3.org/2000/svg" width="158" height="32" fill="none"><path fill="#fff" fill-rule="evenodd" d="M0 16c0 9.85 6.104 16 15.154 16 5.173 0 9.67-2.063 12.26-6.046v5.358h6.658V20.989c0-3.58 1.573-5.45 4.366-5.908-.622 1.501-.953 3.227-.953 5.134 0 7.054 4.525 11.613 11.568 11.613 4.172 0 7.464-1.619 9.444-4.42 1.359 3.21 4.622 4.549 9.89 4.549 4.499 0 7.735-1.193 9.345-3.403 1.612 2.386 4.68 3.403 9.272 3.403 4.222 0 7.332-1.05 9.03-3.007v2.362h7.214V20.43h4.482l6.616 10.882h8.11l-1.148-1.834c1.924 1.513 4.443 2.35 7.37 2.35 4.584 0 8.4-2.065 10.116-5.663v5.147H158V.688h-19.206v14.225c-1.751-3.971-5.39-6.31-10.201-6.31-2.897 0-5.369.817-7.26 2.288.009-.187.013-.377.013-.568 0-5.936-4.311-9.635-11.226-9.635H96.034v12.023c-1.294-2.483-4.133-4.109-9.371-4.109-4.845 0-8.001 1.458-9.27 4.063-1.305-2.457-4.141-4.063-9.347-4.063-5.126 0-8.363 1.633-9.473 4.53-1.97-2.869-5.294-4.53-9.52-4.53-2.974 0-5.5.813-7.425 2.284V8.345h-1.451c-2.541 0-4.342 1.542-5.463 3.514-.59 1.037-1.609 1.82-2.795 1.82h-4.506v5.849H22.41c-.683 4.086-3.67 6.193-7.256 6.193-4.91 0-7.641-3.612-7.641-9.72 0-6.065 2.732-9.72 7.64-9.72 3.415 0 6.147 1.763 7.086 5.376h7.3C28.343 4 22.367 0 15.154 0 5.89 0 0 6.15 0 16Zm60.574 4.588c1.246.904 2.937 1.497 4.996 1.82l2.86.474c2.988.473 3.8 1.118 3.8 2.451 0 1.334-1.025 2.15-3.714 2.15-2.775 0-3.97-.816-4.226-3.225h-4.275c.338-1.123.529-2.351.56-3.67Zm23.613 1.82c-4.411-.693-7.134-2.623-7.405-6.193h-4.68c-.086-2.409-1.666-3.14-4.056-3.14s-3.372.818-3.372 2.108c0 1.333 1.067 1.892 3.201 2.236l3.287.473c4.976.781 7.497 2.74 7.711 6.366h4.033c.256 2.409 1.452 3.226 4.226 3.226 2.69 0 3.714-.817 3.714-2.15 0-1.334-.811-1.98-3.799-2.452l-2.86-.473Zm11.847-6.193h-5.316c-.086-2.409-1.665-3.14-4.055-3.14-2.39 0-3.373.818-3.373 2.108 0 1.333 1.068 1.892 3.202 2.236l3.287.473c2.92.459 4.996 1.323 6.255 2.692v-4.369Zm18.91 3.097a10.464 10.464 0 0 0 2.435-1.183 15.136 15.136 0 0 0-.141 2.086c0 1.206.135 2.339.393 3.389l-2.687-4.292ZM103.248 6.495v8.3h6.403c2.774 0 4.482-1.72 4.482-4.171 0-2.452-1.708-4.13-4.482-4.13h-6.403Zm35.546 17.892v-2.194h-15.153c.47 3.183 2.433 4.689 5.037 4.689 2.22 0 3.671-.904 4.44-2.495h5.676Zm-15.11-6.451c.512-3.097 2.39-4.388 4.824-4.388 2.689 0 4.439 1.635 4.908 4.388h-9.732Zm-69.85 2.28c0 4.214-1.835 6.236-4.78 6.236-2.989 0-4.824-2.022-4.824-6.237s1.835-6.236 4.823-6.236c2.946 0 4.781 2.021 4.781 6.236Z" clip-rule="evenodd"/></svg>