<svg width="429" height="96" viewBox="0 0 429 96" fill="none" xmlns="http://www.w3.org/2000/svg">
<path d="M0 95.187V45.9825H9.98135V95.187H0ZM8.63252 71.7263L8.22787 59.5914L65.4183 0.804932H76.8834L35.2045 44.4903L29.5394 50.5577L8.63252 71.7263ZM67.8462 95.187L27.1115 48.2656L33.8557 40.9847L79.7159 95.187H67.8462Z" fill="#1A32EF"/>
<path d="M0 23.2768V0.804932H9.98135V13.2993C9.98135 18.8094 5.51222 23.2768 0 23.2768Z" fill="#1A32EF"/>
<path d="M0 95.1939V38.0793C0 32.5692 4.46913 28.1018 9.98135 28.1018V95.1939H0Z" fill="#1A32EF"/>
<path d="M166.58 95.1867H158.353L93.3389 13.2092H97.6552V95.1867H87.6738V0.804688H95.9017L161.05 82.7822H166.58V95.1867Z" fill="#1A32EF"/>
<path d="M156.598 23.2766V0.804688H166.579V13.2991C166.579 18.8092 162.11 23.2766 156.598 23.2766Z" fill="#1A32EF"/>
<path d="M156.598 87.1038V38.0791C156.598 32.569 161.067 28.1016 166.579 28.1016V87.1038H156.598Z" fill="#1A32EF"/>
<path d="M230.987 96C223.883 96 217.296 94.809 211.226 92.427C205.157 90.0449 199.896 86.6741 195.445 82.3146C190.994 77.955 187.532 72.8764 185.059 67.0787C182.586 61.2809 181.35 54.9213 181.35 48C181.35 41.0787 182.586 34.7191 185.059 28.9213C187.532 23.1236 190.994 18.0449 195.445 13.6854C199.896 9.32584 205.134 5.95506 211.159 3.57303C217.184 1.19101 223.793 0 230.987 0C238.18 0 244.655 1.19101 250.68 3.57303C256.704 5.95506 261.942 9.30337 266.394 13.618C270.845 17.9326 274.307 23.0112 276.78 28.8539C279.252 34.6966 280.489 41.0787 280.489 48C280.489 54.9213 279.252 61.3034 276.78 67.1461C274.307 72.9888 270.845 78.0674 266.394 82.382C261.942 86.6966 256.704 90.0449 250.68 92.427C244.655 94.809 238.091 96 230.987 96ZM230.987 87.1011C236.652 87.1011 241.89 86.1348 246.701 84.2022C251.511 82.2697 255.693 79.5281 259.245 75.9775C262.797 72.427 265.562 68.2921 267.54 63.573C269.518 58.8539 270.507 53.6629 270.507 48C270.507 42.3371 269.518 37.1461 267.54 32.427C265.562 27.7079 262.797 23.573 259.245 20.0225C255.693 16.4719 251.511 13.7303 246.701 11.7978C241.89 9.86517 236.652 8.89888 230.987 8.89888C225.322 8.89888 220.061 9.86517 215.205 11.7978C210.35 13.7303 206.146 16.4719 202.594 20.0225C199.042 23.573 196.254 27.7079 194.231 32.427C192.208 37.1461 191.196 42.3371 191.196 48C191.196 53.6629 192.208 58.7416 194.231 63.5056C196.254 68.2697 199.042 72.427 202.594 75.9775C206.146 79.5281 210.35 82.2697 215.205 84.2022C220.061 86.1348 225.322 87.1011 230.987 87.1011Z" fill="#1A32EF"/>
<path d="M313.672 8.89458V9.4339H280.49V0.804688H356.834V9.4339H323.653V8.89458H313.672Z" fill="#1A32EF"/>
<path d="M393.796 96C386.782 96 380.061 94.8539 373.631 92.5618C367.202 90.2697 362.234 87.3258 358.727 83.7303L362.638 76.0449C365.965 79.2809 370.439 82 376.059 84.2022C381.679 86.4045 387.592 87.5056 393.796 87.5056C400.001 87.5056 404.564 86.764 408.296 85.2809C412.028 83.7978 414.77 81.7977 416.524 79.2809C418.277 76.764 419.154 73.9775 419.154 70.9213C419.154 67.236 418.098 64.2697 415.984 62.0225C413.871 59.7753 411.106 58 407.689 56.6966C404.272 55.3933 400.495 54.2472 396.359 53.2584C392.223 52.2697 388.086 51.2135 383.95 50.0899C379.813 48.9663 376.014 47.4607 372.552 45.573C369.09 43.6854 366.303 41.191 364.189 38.0899C362.076 34.9888 361.02 30.9213 361.02 25.8876C361.02 21.2135 362.256 16.9213 364.729 13.0112C367.202 9.10112 371.001 5.95506 376.126 3.57303C381.252 1.19101 387.816 0 395.819 0C401.125 0 406.385 0.741573 411.601 2.22472C416.816 3.70786 421.312 5.75281 425.089 8.35955L421.717 16.3146C417.671 13.618 413.377 11.6404 408.836 10.382C404.295 9.1236 399.911 8.49438 395.685 8.49438C390.019 8.49438 385.343 9.25843 381.657 10.7865C377.97 12.3146 375.25 14.3596 373.496 16.9213C371.743 19.4831 370.866 22.382 370.866 25.618C370.866 29.3034 371.923 32.2697 374.036 34.5169C376.149 36.764 378.937 38.5169 382.399 39.7753C385.861 41.0337 389.66 42.1573 393.796 43.1461C397.933 44.1348 402.047 45.2135 406.138 46.382C410.229 47.5506 414.006 49.0562 417.468 50.8989C420.93 52.7416 423.718 55.191 425.831 58.2472C427.944 61.3034 429.001 65.3034 429.001 70.2472C429.001 74.8315 427.742 79.0786 425.224 82.9888C422.706 86.8989 418.862 90.0449 413.691 92.427C408.521 94.809 401.889 96 393.796 96Z" fill="#1A32EF"/>
<path d="M323.653 72.7109V95.1828H313.672V82.6885C313.672 77.1784 318.141 72.7109 323.653 72.7109Z" fill="#1A32EF"/>
<path d="M323.653 0.804688V57.9193C323.653 63.4294 319.184 67.8968 313.672 67.8968V0.804688H323.653Z" fill="#1A32EF"/>
</svg>
