<svg xmlns="http://www.w3.org/2000/svg" width="681" height="152" fill="none"><path fill="#fff" d="M0 150.685V72.8h15.855v77.885H0Zm13.714-37.126-.638-19.21 90.781-93.076h18.202L55.881 70.44l-8.998 9.605-33.192 33.515h.023Zm93.993 37.126L43.033 76.411 53.74 64.876l72.807 85.809h-18.84ZM0 36.855V1.273h15.855v19.778c0 8.742-7.107 15.804-15.855 15.804Z"/><path fill="#fff" d="M0 150.708V60.312c0-8.72 7.085-15.804 15.855-15.804v106.2H0ZM264.459 150.685h-13.054L148.186 20.915h6.857v129.77h-15.855V1.273h13.053l103.424 129.77h8.771v19.642h.023ZM248.609 36.855V1.273h15.856v19.778c0 8.72-7.085 15.804-15.856 15.804Z"/><path fill="#fff" d="M248.609 137.901v-77.59c0-8.719 7.085-15.803 15.856-15.803V137.9h-15.856ZM366.689 152.001c-11.276 0-21.733-1.884-31.369-5.654-9.636-3.769-17.997-9.105-25.059-16.008-7.062-6.903-12.575-14.941-16.493-24.115-3.918-9.173-5.877-19.232-5.877-30.2 0-10.967 1.959-21.026 5.877-30.2 3.918-9.174 9.431-17.212 16.493-24.115 7.062-6.903 15.377-12.239 24.945-16.008 9.568-3.77 20.047-5.654 31.483-5.654s21.687 1.885 31.255 5.654c9.568 3.77 17.883 9.06 24.945 15.895 7.062 6.834 12.552 14.873 16.493 24.115 3.919 9.241 5.878 19.346 5.878 30.313 0 10.968-1.959 21.072-5.878 30.314-3.918 9.242-9.431 17.28-16.493 24.115-7.062 6.834-15.377 12.125-24.945 15.894-9.568 3.77-19.978 5.654-31.255 5.654Zm0-14.101c8.998 0 17.313-1.521 24.945-4.586 7.631-3.066 14.283-7.403 19.91-13.011 5.627-5.609 10.024-12.171 13.168-19.642 3.143-7.47 4.715-15.69 4.715-24.66 0-8.969-1.572-17.189-4.715-24.66-3.144-7.47-7.541-14.01-13.168-19.64-5.649-5.61-12.279-9.969-19.91-13.012-7.632-3.065-15.947-4.587-24.945-4.587-8.998 0-17.336 1.522-25.059 4.587-7.7 3.066-14.374 7.403-20.024 13.011-5.65 5.632-10.069 12.171-13.281 19.642-3.212 7.47-4.807 15.69-4.807 24.66 0 8.969 1.595 17.007 4.807 24.546 3.212 7.538 7.631 14.123 13.281 19.732 5.627 5.631 12.302 9.968 20.024 13.011 7.7 3.065 16.061 4.587 25.059 4.587v.022ZM497.982 14.08v.863h-52.67V1.273h121.194v13.67h-52.669v-.863h-15.855ZM625.16 152c-11.139 0-21.801-1.817-32.006-5.45-10.206-3.633-18.088-8.288-23.67-13.987l6.219-12.171c5.286 5.132 12.393 9.423 21.3 12.92 8.931 3.497 18.316 5.223 28.157 5.223 9.842 0 17.086-1.181 23.009-3.52 5.923-2.339 10.274-5.518 13.053-9.491 2.78-3.974 4.169-8.402 4.169-13.238 0-5.836-1.686-10.536-5.034-14.079-3.349-3.565-7.746-6.358-13.168-8.424-5.421-2.066-11.413-3.883-17.996-5.45a626.35 626.35 0 0 1-19.706-5.018c-6.561-1.77-12.597-4.155-18.088-7.153-5.49-2.997-9.932-6.925-13.281-11.853-3.349-4.904-5.034-11.353-5.034-19.323 0-7.402 1.959-14.192 5.877-20.39 3.918-6.2 9.955-11.173 18.088-14.942C605.182 1.884 615.615 0 628.304 0c8.429 0 16.767 1.18 25.059 3.52 8.269 2.338 15.422 5.585 21.414 9.718l-5.354 12.602c-6.424-4.268-13.235-7.402-20.457-9.4-7.221-1.998-14.169-2.998-20.867-2.998-8.998 0-16.425 1.204-22.279 3.634-5.855 2.43-10.161 5.654-12.963 9.718-2.779 4.065-4.168 8.652-4.168 13.76 0 5.836 1.685 10.536 5.034 14.079 3.349 3.565 7.768 6.335 13.281 8.333 5.49 1.998 11.527 3.77 18.088 5.336a451.184 451.184 0 0 1 19.591 5.132c6.493 1.862 12.484 4.246 17.997 7.153 5.49 2.929 9.91 6.79 13.281 11.626 3.349 4.836 5.035 11.172 5.035 19.005 0 7.267-2.005 13.988-5.991 20.164-4.01 6.199-10.092 11.172-18.316 14.941-8.201 3.77-18.726 5.654-31.574 5.654l.045.023ZM513.816 115.141v35.581h-15.855v-19.777c0-8.72 7.085-15.804 15.855-15.804Z"/><path fill="#fff" d="M513.816 1.266v90.418c0 8.72-7.084 15.805-15.855 15.805V1.266h15.855Z"/></svg>